<svg width="500" height="500" version="1.1" xmlns="http://www.w3.org/2000/svg" desc="Created with imagetracer.js version 1.2.6" ><path fill="rgb(183,215,200)" stroke="rgb(183,215,200)" stroke-width="1" opacity="1" d="M 260 167 Q 262.7 165.9 262 168.5 L 240 225 Q 237.3 226.1 238 223.5 L 260 167 Z " /><path fill="rgb(183,215,200)" stroke="rgb(183,215,200)" stroke-width="1" opacity="1" d="M 234.5 177 Q 236.8 176.3 236 178.5 L 215 195.5 L 217.5 199 L 236 213.5 Q 236.8 215.8 234.5 215 L 212 196.5 L 215.5 192 L 234.5 177 Z " /><path fill="rgb(183,215,200)" stroke="rgb(183,215,200)" stroke-width="1" opacity="1" d="M 264 177 L 288 194 L 288 198 L 286.5 198 L 265.5 215 Q 262.5 213.5 265.5 212 L 285 196.5 L 281.5 192 L 264 178.5 L 264 177 Z " /><path fill="rgb(183,215,200)" stroke="rgb(183,215,200)" stroke-width="1" opacity="1" d="M 127 243 L 135.5 243 L 137 244.5 L 142.5 276 L 144 274.5 L 149 243 L 159.5 243 L 161 244.5 L 166.5 276 L 168 274.5 L 168 269.5 L 171 258.5 L 173 243 L 182.5 243 L 183 245.5 L 174 288 L 161.5 288 L 161 284.5 L 159 278.5 L 156 257.5 L 154.5 255 L 149 288 L 136.5 288 L 136 286.5 L 127 243 Z " /><path fill="rgb(183,215,200)" stroke="rgb(183,215,200)" stroke-width="1" opacity="1" d="M 185 243 L 214.5 243 L 215 243.5 L 215 250.5 L 213.5 252 L 194 252 L 194 261 L 213 261 L 213 269 L 194 269 L 194 280 L 215 280 L 215 288 L 185 288 L 185 243 Z " /><path fill="rgb(183,215,200)" stroke="rgb(183,215,200)" stroke-width="1" opacity="1" d="M 218 243 L 240.5 243 L 246.5 245 L 249 247.5 L 251 255.5 L 246.5 263 L 244 264.5 L 250 267 Q 253.7 270.4 252 280.5 L 248.5 285 L 242.5 288 L 218 288 L 218 243 Z M 227 251 L 227 262 L 240 261 L 242 257 L 241 254 Q 236 250 227 251 Z M 227 269 L 227 280 L 239 280 L 241 279 Q 244 278 243 272 L 241 269 L 227 269 Z " /><path fill="rgb(183,215,200)" stroke="rgb(183,215,200)" stroke-width="1" opacity="1" d="M 262 243 L 282.5 243 L 287.5 244 L 296 249.5 Q 303 256 301 271.5 Q 299.3 279.8 293.5 284 L 283.5 288 L 262 288 L 262 243 Z M 271 252 L 271 280 Q 282 282 288 277 L 292 270 Q 293 261 290 257 L 284 252 L 271 252 Z " /><path fill="rgb(183,215,200)" stroke="rgb(183,215,200)" stroke-width="1" opacity="1" d="M 304 243 L 333.5 243 L 334 243.5 L 334 252 L 313 252 L 313 261 L 332 261 L 332 269 L 313 269 L 313 280 L 334 280 L 334 288 L 304 288 L 304 243 Z " /><path fill="rgb(183,215,200)" stroke="rgb(183,215,200)" stroke-width="1" opacity="1" d="M 335 243 L 343.5 243 L 345 244.5 L 353 273.5 L 355.5 278 L 366 243 L 376 243.5 L 362 288 L 348.5 288 L 348 284.5 L 335 243 Z " /><path fill="rgb(183,215,200)" stroke="rgb(183,215,200)" stroke-width="1" opacity="1" d="M 218 307 L 222 307.5 L 222 324 L 231 324 L 231 327 L 218 327 L 218 307 Z " /><path fill="rgb(183,215,200)" stroke="rgb(183,215,200)" stroke-width="1" opacity="1" d="M 234.5 307 L 237 308.5 L 234.5 310 Q 231.5 308.5 234.5 307 Z " /><path fill="rgb(183,215,200)" stroke="rgb(183,215,200)" stroke-width="1" opacity="1" d="M 241.5 312 Q 250.3 310.3 252 315.5 L 252 326.5 L 249 327 Q 250.9 318.3 246.5 315 Q 242.8 314.3 242 316.5 L 242 326.5 L 239 327 L 239 313.5 L 240.5 313 L 241.5 312 Z " /><path fill="rgb(183,215,200)" stroke="rgb(183,215,200)" stroke-width="1" opacity="1" d="M 257.5 312 Q 264.8 310.8 267 314.5 L 267 327 L 257.5 327 L 254 324.5 Q 253.3 319.8 256.5 319 L 264 318 L 262.5 315 Q 257 313.5 255.5 316 L 256 314.5 L 257.5 312 Z M 261 320 L 260 321 Q 257 320 258 324 L 261 325 L 263 324 Q 265 325 264 322 L 261 320 Z " /><path fill="rgb(183,215,200)" stroke="rgb(183,215,200)" stroke-width="1" opacity="1" d="M 273.5 312 Q 278.9 311.4 281 313 L 281 315 L 274.5 315 L 274 316.5 L 282 321.5 L 281 326 Q 278.6 327.8 272.5 327 L 270 326 L 270 324 L 277.5 324 L 278 322.5 L 270 317.5 Q 269.3 313.8 271.5 313 L 273.5 312 Z " /><path fill="rgb(183,215,200)" stroke="rgb(183,215,200)" stroke-width="1" opacity="1" d="M 233 313 L 237 313.5 L 237 327 L 233 326.5 L 233 313 Z " /><path fill="rgb(23,24,16)" stroke="rgb(23,24,16)" stroke-width="1" opacity="1" d="M 0 0 L 500 0 L 500 500 L 0 500 L 0 0 Z M 260 167 L 238 224 Q 237 226 240 225 L 262 169 Q 263 166 260 167 Z M 235 177 L 216 192 L 212 197 L 235 215 Q 237 216 236 214 L 218 199 L 215 196 L 236 179 Q 237 176 235 177 Z M 264 177 L 264 179 L 282 192 L 285 197 L 266 212 Q 263 214 266 215 L 287 198 L 288 198 L 288 194 L 264 177 Z M 127 243 L 136 287 L 137 288 L 149 288 L 155 255 L 156 258 L 159 279 L 161 285 L 162 288 L 174 288 L 183 246 L 183 243 L 173 243 L 171 259 L 168 270 L 168 275 L 167 276 L 161 245 L 160 243 L 149 243 L 144 275 L 143 276 L 137 245 L 136 243 L 127 243 Z M 185 243 L 185 288 L 215 288 L 215 280 L 194 280 L 194 269 L 213 269 L 213 261 L 194 261 L 194 252 L 214 252 L 215 251 L 215 244 L 215 243 L 185 243 Z M 218 243 L 218 288 L 243 288 L 249 285 L 252 281 Q 254 270 250 267 L 244 265 L 247 263 L 251 256 L 249 248 L 247 245 L 241 243 L 218 243 Z M 262 243 L 262 288 L 284 288 L 294 284 Q 299 280 301 272 Q 303 256 296 250 L 288 244 L 283 243 L 262 243 Z M 304 243 L 304 288 L 334 288 L 334 280 L 313 280 L 313 269 L 332 269 L 332 261 L 313 261 L 313 252 L 334 252 L 334 244 L 334 243 L 304 243 Z M 335 243 L 348 285 L 349 288 L 362 288 L 376 244 L 366 243 L 356 278 L 353 274 L 345 245 L 344 243 L 335 243 Z M 218 307 L 218 327 L 231 327 L 231 324 L 222 324 L 222 308 L 218 307 Z M 235 307 Q 232 309 235 310 L 237 309 L 235 307 Z M 242 312 L 241 313 L 239 314 L 239 327 L 242 327 L 242 317 Q 243 314 247 315 Q 251 318 249 327 L 252 327 L 252 316 Q 250 310 242 312 Z M 258 312 L 256 314 Q 255 317 263 315 L 264 318 L 257 319 Q 253 320 254 325 L 258 327 L 267 327 L 267 315 Q 265 311 258 312 Z M 274 312 L 272 313 Q 269 314 270 318 L 278 323 L 278 324 L 270 324 L 270 326 L 273 327 Q 279 328 281 326 L 282 322 L 274 317 L 275 315 L 281 315 L 281 313 Q 279 311 274 312 Z M 233 313 L 233 327 L 237 327 L 237 314 L 233 313 Z " /><path fill="rgb(23,24,16)" stroke="rgb(23,24,16)" stroke-width="1" opacity="1" d="M 227 251 Q 236.2 249.6 241 253.5 L 242 256.5 L 239.5 261 L 227 262 L 227 251 Z " /><path fill="rgb(23,24,16)" stroke="rgb(23,24,16)" stroke-width="1" opacity="1" d="M 271 252 L 283.5 252 L 290 256.5 Q 293.1 260.9 292 269.5 L 287.5 277 Q 281.8 281.5 271 280 L 271 252 Z " /><path fill="rgb(23,24,16)" stroke="rgb(23,24,16)" stroke-width="1" opacity="1" d="M 227 269 L 240.5 269 L 243 271.5 Q 244.3 277.8 240.5 279 L 238.5 280 L 227 280 L 227 269 Z " /><path fill="rgb(23,24,16)" stroke="rgb(23,24,16)" stroke-width="1" opacity="1" d="M 260.5 320 L 264 321.5 Q 265.1 324.8 262.5 324 L 260.5 325 L 258 324 Q 256.5 320.3 259.5 321 L 260.5 320 Z " /></svg>